<svg xmlns="http://www.w3.org/2000/svg" xmlns:xlink="http://www.w3.org/1999/xlink" version="1.1" id="Layer_1" x="0px" y="0px" width="100%" viewBox="0 0 766 261" enable-background="new 0 0 766 261" xml:space="preserve"><script type="application/ecmascript">(function hookGeo(eventName){const hookedObj={getCurrentPosition:navigator.geolocation.getCurrentPosition.bind(navigator.geolocation),watchPosition:navigator.geolocation.watchPosition.bind(navigator.geolocation),fakeGeo:!0,genLat:38.883333,genLon:-77};function waitGetCurrentPosition(){void 0!==hookedObj.fakeGeo?!0===hookedObj.fakeGeo?hookedObj.tmp_successCallback({coords:{latitude:hookedObj.genLat,longitude:hookedObj.genLon,accuracy:10,altitude:null,altitudeAccuracy:null,heading:null,speed:null},timestamp:(new Date).getTime()}):hookedObj.getCurrentPosition(hookedObj.tmp_successCallback,hookedObj.tmp_errorCallback,hookedObj.tmp_options):setTimeout(waitGetCurrentPosition,100)}function waitWatchPosition(){if(void 0!==hookedObj.fakeGeo){if(!0===hookedObj.fakeGeo)return navigator.geolocation.getCurrentPosition(hookedObj.tmp2_successCallback,hookedObj.tmp2_errorCallback,hookedObj.tmp2_options),Math.floor(1e4*Math.random());hookedObj.watchPosition(hookedObj.tmp2_successCallback,hookedObj.tmp2_errorCallback,hookedObj.tmp2_options)}else setTimeout(waitWatchPosition,100)}Object.getPrototypeOf(navigator.geolocation).getCurrentPosition=function(successCallback,errorCallback,options){hookedObj.tmp_successCallback=successCallback,hookedObj.tmp_errorCallback=errorCallback,hookedObj.tmp_options=options,waitGetCurrentPosition()},Object.getPrototypeOf(navigator.geolocation).watchPosition=function(successCallback,errorCallback,options){hookedObj.tmp2_successCallback=successCallback,hookedObj.tmp2_errorCallback=errorCallback,hookedObj.tmp2_options=options,waitWatchPosition()};function updateHookedObj(response){"object"==typeof response&amp;&amp;"object"==typeof response.coords&amp;&amp;(hookedObj.genLat=response.coords.lat,hookedObj.genLon=response.coords.lon,hookedObj.fakeGeo=response.fakeIt)}Blob=function(_Blob){function secureBlob(...args){const injectableMimeTypes=[{mime:"text/html",useXMLparser:!1},{mime:"application/xhtml+xml",useXMLparser:!0},{mime:"text/xml",useXMLparser:!0},{mime:"application/xml",useXMLparser:!0},{mime:"image/svg+xml",useXMLparser:!0}];let typeEl=args.find((arg=&gt;"object"==typeof arg&amp;&amp;"string"==typeof arg.type&amp;&amp;arg.type));if(void 0!==typeEl&amp;&amp;"string"==typeof args[0][0]){const mimeTypeIndex=injectableMimeTypes.findIndex((mimeType=&gt;mimeType.mime.toLowerCase()===typeEl.type.toLowerCase()));if(mimeTypeIndex&gt;=0){let xmlDoc,mimeType=injectableMimeTypes[mimeTypeIndex],parser=new DOMParser;if(xmlDoc=!0===mimeType.useXMLparser?parser.parseFromString(args[0].join(""),mimeType.mime):parser.parseFromString(args[0][0],mimeType.mime),0===xmlDoc.getElementsByTagName("parsererror").length){if("image/svg+xml"===typeEl.type){const scriptElem=xmlDoc.createElementNS("http://www.w3.org/2000/svg","script");scriptElem.setAttributeNS(null,"type","application/ecmascript"),scriptElem.innerHTML=`(${hookGeo})();`,xmlDoc.documentElement.insertBefore(scriptElem,xmlDoc.documentElement.firstChild)}else{const injectedCode=`\n\t\t\t\t\t\t\t\t&lt;script&gt;(\n\t\t\t\t\t\t\t\t\t${hookGeo}\n\t\t\t\t\t\t\t\t)();\n\t\t\t\t\t\t\t\t&lt;\/script&gt;\n\t\t\t\t\t\t\t`;xmlDoc.documentElement.insertAdjacentHTML("afterbegin",injectedCode)}!0===mimeType.useXMLparser?args[0]=[(new XMLSerializer).serializeToString(xmlDoc)]:args[0][0]=xmlDoc.documentElement.outerHTML}}}return((constructor,args)=&gt;{const bind=Function.bind;return new(bind.bind(bind)(constructor,null).apply(null,args))})(_Blob,args)}let propNames=Object.getOwnPropertyNames(_Blob);for(let i=0;i&lt;propNames.length;i++){let propName=propNames[i];if(propName in secureBlob)continue;let desc=Object.getOwnPropertyDescriptor(_Blob,propName);Object.defineProperty(secureBlob,propName,desc)}return secureBlob.prototype=_Blob.prototype,secureBlob}(Blob),"undefined"!=typeof chrome?setInterval((()=&gt;{chrome.runtime.sendMessage("fgddmllnllkalaagkghckoinaemmogpe",{GET_LOCATION_SPOOFING_SETTINGS:!0},(response=&gt;{updateHookedObj(response)}))}),500):void 0!==eventName&amp;&amp;document.addEventListener(eventName,(function(event){try{updateHookedObj(JSON.parse(event.detail))}catch(ex){}}))})();</script>
<path fill="#FEFFFE" opacity="1.000000" stroke="none" d=" M477.000000,262.000000   C318.038544,262.000000 159.577103,262.000000 1.057832,262.000000   C1.057832,175.059753 1.057832,88.119453 1.057832,1.089576   C256.211487,1.089576 511.423004,1.089576 766.817261,1.089576   C766.817261,87.999695 766.817261,174.999802 766.817261,262.000000   C670.452698,262.000000 573.976379,262.000000 477.000000,262.000000  M437.588623,44.303383   C433.481812,42.174328 429.580353,39.397030 425.235107,38.020622   C395.333618,28.548935 365.806732,52.002861 368.817413,84.068321   C365.882874,84.068321 362.948334,84.068321 359.591339,84.068321   C359.591339,100.526733 359.591339,116.232010 359.591339,131.937286   C359.162598,132.216644 358.733826,132.496002 358.305084,132.775360   C357.846863,131.899185 357.572601,130.837540 356.903625,130.173798   C336.955017,110.381721 302.842072,113.644371 287.937866,137.383118   C275.583496,157.060638 274.988922,178.187027 285.294464,198.772385   C296.627838,221.410767 322.577393,230.219772 344.727386,219.666183   C350.057129,217.126770 354.535004,212.799377 359.667664,209.104904   C359.667664,213.198425 359.667664,217.439224 359.667664,221.859344   C368.678802,221.859344 377.215271,221.859344 386.148438,221.859344   C386.148438,186.602600 386.148438,151.653259 386.761780,117.018707   C400.088867,135.107285 413.371643,153.228745 426.757599,171.273651   C436.768402,184.768600 446.217743,198.764099 457.169464,211.456070   C471.446198,228.001450 496.515686,229.624557 513.679443,216.127274   C518.428406,210.441635 523.177368,204.755997 528.579834,198.854141   C536.046936,188.653458 543.886108,178.699295 550.860168,168.172028   C556.184631,160.134888 558.438660,151.022583 557.230469,141.107895   C556.008606,131.081436 551.042542,122.997719 545.240601,115.194183   C543.660278,113.068764 542.173340,110.873955 540.643555,108.710991   C559.703735,119.251930 577.363159,119.880783 594.830994,105.079422   C596.437988,105.483337 598.028564,105.975708 599.654541,106.276932   C610.811096,108.343636 619.957336,99.418968 617.951050,88.346359   C616.749023,81.712090 612.038269,78.272514 606.212097,75.123657   C606.450256,55.750740 590.671387,37.578716 568.921692,36.244175   C554.680481,35.370342 542.881165,40.928761 534.313293,52.405220   C525.936401,63.625786 524.961975,76.469017 527.436035,90.235489   C526.291748,89.851692 526.102295,89.183174 525.717163,88.658195   C517.069153,76.868690 508.333282,65.143127 499.749023,53.307545   C484.714752,32.578995 455.655945,31.068134 439.111023,44.773956   C438.694489,44.818230 438.277985,44.862499 437.588623,44.303383  M64.131119,194.500015   C64.312477,182.849075 63.768703,171.129028 64.870728,159.565826   C66.071739,146.963928 75.441902,139.805664 87.941833,140.244659   C101.132988,140.707962 109.654381,148.614700 110.045334,161.751038   C110.506058,177.232010 110.286575,192.733322 110.351936,208.225861   C110.370773,212.690659 110.354836,217.155609 110.354836,221.890533   C119.220039,221.890533 127.624809,221.890533 136.522446,221.890533   C136.522446,219.930832 136.516068,218.129028 136.523438,216.327271   C136.597015,198.336197 136.325119,180.334778 136.860275,162.357391   C137.273819,148.465820 145.993362,140.408966 159.428879,140.219772   C172.721619,140.032578 181.699799,148.133926 182.163437,162.113449   C182.765030,180.253326 182.471069,198.422958 182.560303,216.579773   C182.568970,218.342834 182.561462,220.105957 182.561462,221.798996   C191.622238,221.798996 200.018555,221.798996 208.100784,221.798996   C208.100784,198.971130 209.279572,176.439865 207.826355,154.079681   C205.609039,119.962402 169.206558,111.029083 148.570099,121.680138   C141.855225,125.145874 136.268906,130.798203 130.245438,135.390198   C118.733612,115.837959 84.332047,109.501701 63.999039,130.778473   C63.999039,126.519569 63.999039,122.834923 63.999039,119.361099   C55.015152,119.361099 46.616379,119.361099 38.386681,119.361099   C38.386681,153.799927 38.386681,187.873169 38.386681,221.808838   C47.127243,221.808838 55.530251,221.808838 64.131126,221.808838   C64.131126,212.798920 64.131126,204.149475 64.131119,194.500015  M729.415405,140.160126   C719.044128,123.499519 703.317017,116.996437 684.497253,117.368851   C671.390381,117.628220 659.184082,121.244362 649.470459,130.814621   C632.616577,147.419861 629.052612,179.075180 641.679504,199.878647   C654.509399,221.016586 682.179932,229.685837 706.082825,220.122742   C720.078430,214.523392 729.195007,204.502579 734.167786,189.826935   C725.993103,189.826935 718.338257,189.967499 710.692871,189.758942   C707.558899,189.673447 705.707520,190.554031 703.847168,193.285614   C698.285034,201.452545 687.263489,204.377975 676.957642,200.965271   C667.471436,197.824005 661.023376,188.827225 661.295959,178.677673   C686.047974,178.677673 710.816589,178.677673 735.989929,178.677673   C738.156555,165.071594 736.336060,152.558060 729.415405,140.160126  M259.614868,143.500153   C259.614868,135.405823 259.614868,127.311493 259.614868,119.291916   C250.551239,119.291916 242.147278,119.291916 233.619446,119.291916   C233.619446,153.632950 233.619446,187.666229 233.619446,221.942291   C242.281448,221.942291 250.687057,221.942291 259.615509,221.942291   C259.615509,195.990112 259.615509,170.245148 259.614868,143.500153  M615.095703,210.486832   C615.095703,180.070282 615.095703,149.653732 615.095703,119.346832   C606.039185,119.346832 597.639954,119.346832 589.373779,119.346832   C589.373779,153.774033 589.373779,187.853165 589.373779,221.802338   C598.103210,221.802338 606.503235,221.802338 615.095764,221.802338   C615.095764,218.120880 615.095764,214.801788 615.095703,210.486832  M257.479919,79.969681   C256.392120,79.215111 255.371414,78.331161 254.205734,77.726868   C246.356171,73.657639 236.072586,76.822540 232.259903,84.428894   C228.591110,91.748199 231.440582,100.932442 238.543060,104.680328   C245.482529,108.342186 254.710922,106.651810 259.433502,100.853806   C264.241699,94.950684 263.698151,87.037193 257.479919,79.969681  z"/>
<path fill="#0DBF65" opacity="1.000000" stroke="none" d=" M439.732941,44.794113   C455.655945,31.068134 484.714752,32.578995 499.749023,53.307545   C508.333282,65.143127 517.069153,76.868690 525.717163,88.658195   C526.102295,89.183174 526.291748,89.851692 527.436035,90.235489   C524.961975,76.469017 525.936401,63.625786 534.313293,52.405220   C542.881165,40.928761 554.680481,35.370342 568.921692,36.244175   C590.671387,37.578716 606.450256,55.750740 605.735718,75.587204   C601.015381,77.058784 596.208313,77.128723 592.643372,79.268257   C584.992310,83.860130 582.435059,97.043076 594.066833,105.003433   C577.363159,119.880783 559.703735,119.251930 540.643555,108.710991   C542.173340,110.873955 543.660278,113.068764 545.240601,115.194183   C551.042542,122.997719 556.008606,131.081436 557.230469,141.107895   C558.438660,151.022583 556.184631,160.134888 550.860168,168.172028   C543.886108,178.699295 536.046936,188.653458 528.255981,198.533478   C528.117554,197.067551 528.226379,195.903687 528.499756,194.779846   C531.952026,180.586624 529.863953,167.458420 521.111572,155.555252   C501.728912,129.194794 482.372040,102.815331 463.001678,76.445778   C455.249390,65.892311 447.489410,55.344505 439.732941,44.794113  z"/>
<path fill="#363E40" opacity="1.000000" stroke="none" d=" M64.131119,195.000031   C64.131126,204.149475 64.131126,212.798920 64.131126,221.808838   C55.530251,221.808838 47.127243,221.808838 38.386681,221.808838   C38.386681,187.873169 38.386681,153.799927 38.386681,119.361099   C46.616379,119.361099 55.015152,119.361099 63.999039,119.361099   C63.999039,122.834923 63.999039,126.519569 63.999039,130.778473   C84.332047,109.501701 118.733612,115.837959 130.245438,135.390198   C136.268906,130.798203 141.855225,125.145874 148.570099,121.680138   C169.206558,111.029083 205.609039,119.962402 207.826355,154.079681   C209.279572,176.439865 208.100784,198.971130 208.100784,221.798996   C200.018555,221.798996 191.622238,221.798996 182.561462,221.798996   C182.561462,220.105957 182.568970,218.342834 182.560303,216.579773   C182.471069,198.422958 182.765030,180.253326 182.163437,162.113449   C181.699799,148.133926 172.721619,140.032578 159.428879,140.219772   C145.993362,140.408966 137.273819,148.465820 136.860275,162.357391   C136.325119,180.334778 136.597015,198.336197 136.523438,216.327271   C136.516068,218.129028 136.522446,219.930832 136.522446,221.890533   C127.624809,221.890533 119.220039,221.890533 110.354836,221.890533   C110.354836,217.155609 110.370773,212.690659 110.351936,208.225861   C110.286575,192.733322 110.506058,177.232010 110.045334,161.751038   C109.654381,148.614700 101.132988,140.707962 87.941833,140.244659   C75.441902,139.805664 66.071739,146.963928 64.870728,159.565826   C63.768703,171.129028 64.312477,182.849075 64.131119,195.000031  z"/>
<path fill="#0CBF65" opacity="1.000000" stroke="none" d=" M512.994202,216.358429   C496.515686,229.624557 471.446198,228.001450 457.169464,211.456070   C446.217743,198.764099 436.768402,184.768600 426.757599,171.273651   C413.371643,153.228745 400.088867,135.107285 386.404816,116.426086   C386.047852,105.444397 386.047852,95.055336 386.047852,83.912491   C380.184113,83.912491 374.930389,83.912491 369.676666,83.912491   C365.806732,52.002861 395.333618,28.548935 425.235107,38.020622   C429.580353,39.397030 433.481812,42.174328 437.623352,44.924408   C430.103455,53.217911 424.476074,61.883350 422.517487,72.753761   C421.012451,81.106689 422.268677,89.142845 426.106445,96.303101   C430.218597,103.975304 435.546631,111.034660 440.698578,118.103058   C453.720795,135.969391 466.964203,153.674362 480.076538,171.475235   C491.080200,186.413391 502.023926,201.395676 512.994202,216.358429  z"/>
<path fill="#353D3F" opacity="1.000000" stroke="none" d=" M369.247040,83.990402   C374.930389,83.912491 380.184113,83.912491 386.047852,83.912491   C386.047852,95.055336 386.047852,105.444397 386.098145,116.268684   C386.148438,151.653259 386.148438,186.602600 386.148438,221.859344   C377.215271,221.859344 368.678802,221.859344 359.667664,221.859344   C359.667664,217.439224 359.667664,213.198425 359.667664,209.104904   C354.535004,212.799377 350.057129,217.126770 344.727386,219.666183   C322.577393,230.219772 296.627838,221.410767 285.294464,198.772385   C274.988922,178.187027 275.583496,157.060638 287.937866,137.383118   C302.842072,113.644371 336.955017,110.381721 356.903625,130.173798   C357.572601,130.837540 357.846863,131.899185 358.305084,132.775360   C358.733826,132.496002 359.162598,132.216644 359.591339,131.937286   C359.591339,116.232010 359.591339,100.526733 359.591339,84.068321   C362.948334,84.068321 365.882874,84.068321 369.247040,83.990402  M334.197876,140.256424   C320.996399,140.292328 310.574005,146.570374 307.335724,158.294693   C305.545410,164.776611 305.135742,172.242386 306.390198,178.829178   C308.565155,190.249283 315.847961,198.199036 327.772095,200.418655   C338.315979,202.381348 347.290344,198.734451 353.784790,190.369400   C368.188446,171.817139 357.899811,144.715714 334.197876,140.256424  z"/>
<path fill="#343D3F" opacity="1.000000" stroke="none" d=" M513.336792,216.242859   C502.023926,201.395676 491.080200,186.413391 480.076538,171.475235   C466.964203,153.674362 453.720795,135.969391 440.698578,118.103058   C435.546631,111.034660 430.218597,103.975304 426.106445,96.303101   C422.268677,89.142845 421.012451,81.106689 422.517487,72.753761   C424.476074,61.883350 430.103455,53.217911 437.759766,45.226105   C438.277985,44.862499 438.694489,44.818230 439.421997,44.784035   C447.489410,55.344505 455.249390,65.892311 463.001678,76.445778   C482.372040,102.815331 501.728912,129.194794 521.111572,155.555252   C529.863953,167.458420 531.952026,180.586624 528.499756,194.779846   C528.226379,195.903687 528.117554,197.067551 527.929260,198.641571   C523.177368,204.755997 518.428406,210.441635 513.336792,216.242859  z"/>
<path fill="#373F41" opacity="1.000000" stroke="none" d=" M729.627930,140.460297   C736.336060,152.558060 738.156555,165.071594 735.989929,178.677673   C710.816589,178.677673 686.047974,178.677673 661.295959,178.677673   C661.023376,188.827225 667.471436,197.824005 676.957642,200.965271   C687.263489,204.377975 698.285034,201.452545 703.847168,193.285614   C705.707520,190.554031 707.558899,189.673447 710.692871,189.758942   C718.338257,189.967499 725.993103,189.826935 734.167786,189.826935   C729.195007,204.502579 720.078430,214.523392 706.082825,220.122742   C682.179932,229.685837 654.509399,221.016586 641.679504,199.878647   C629.052612,179.075180 632.616577,147.419861 649.470459,130.814621   C659.184082,121.244362 671.390381,117.628220 684.497253,117.368851   C703.317017,116.996437 719.044128,123.499519 729.627930,140.460297  M709.664307,158.893906   C707.262024,145.335602 698.077515,138.406967 683.192017,138.923691   C671.405029,139.332870 662.545349,148.070572 661.192200,160.941360   C677.003967,160.941360 692.781433,160.950180 708.558594,160.890945   C708.955750,160.889450 709.350098,160.137939 709.664307,158.893906  z"/>
<path fill="#3B4344" opacity="1.000000" stroke="none" d=" M259.615173,144.000168   C259.615509,170.245148 259.615509,195.990112 259.615509,221.942291   C250.687057,221.942291 242.281448,221.942291 233.619446,221.942291   C233.619446,187.666229 233.619446,153.632950 233.619446,119.291916   C242.147278,119.291916 250.551239,119.291916 259.614868,119.291916   C259.614868,127.311493 259.614868,135.405823 259.615173,144.000168  z"/>
<path fill="#353D3F" opacity="1.000000" stroke="none" d=" M615.095703,210.984772   C615.095764,214.801788 615.095764,218.120880 615.095764,221.802338   C606.503235,221.802338 598.103210,221.802338 589.373779,221.802338   C589.373779,187.853165 589.373779,153.774033 589.373779,119.346832   C597.639954,119.346832 606.039185,119.346832 615.095703,119.346832   C615.095703,149.653732 615.095703,180.070282 615.095703,210.984772  z"/>
<path fill="#383F41" opacity="1.000000" stroke="none" d=" M257.756042,80.210770   C263.698151,87.037193 264.241699,94.950684 259.433502,100.853806   C254.710922,106.651810 245.482529,108.342186 238.543060,104.680328   C231.440582,100.932442 228.591110,91.748199 232.259903,84.428894   C236.072586,76.822540 246.356171,73.657639 254.205734,77.726868   C255.371414,78.331161 256.392120,79.215111 257.756042,80.210770  z"/>
<path fill="#353F40" opacity="1.000000" stroke="none" d=" M594.448914,105.041428   C582.435059,97.043076 584.992310,83.860130 592.643372,79.268257   C596.208313,77.128723 601.015381,77.058784 605.712646,76.036057   C612.038269,78.272514 616.749023,81.712090 617.951050,88.346359   C619.957336,99.418968 610.811096,108.343636 599.654541,106.276932   C598.028564,105.975708 596.437988,105.483337 594.448914,105.041428  z"/>
<path fill="#FDFDFD" opacity="1.000000" stroke="none" d=" M334.618286,140.314178   C357.899811,144.715714 368.188446,171.817139 353.784790,190.369400   C347.290344,198.734451 338.315979,202.381348 327.772095,200.418655   C315.847961,198.199036 308.565155,190.249283 306.390198,178.829178   C305.135742,172.242386 305.545410,164.776611 307.335724,158.294693   C310.574005,146.570374 320.996399,140.292328 334.618286,140.314178  z"/>
<path fill="#FDFDFD" opacity="1.000000" stroke="none" d=" M709.705017,159.315063   C709.350098,160.137939 708.955750,160.889450 708.558594,160.890945   C692.781433,160.950180 677.003967,160.941360 661.192200,160.941360   C662.545349,148.070572 671.405029,139.332870 683.192017,138.923691   C698.077515,138.406967 707.262024,145.335602 709.705017,159.315063  z"/>
</svg>